HIERARCHY
ROOT Hips
{
	OFFSET 0.00000 0.00000 0.00000
	CHANNELS 6 Xposition Yposition Zposition Zrotation Yrotation Xrotation 
	JOINT LHipJoint
	{
		OFFSET 0 0 0
		CHANNELS 3 Zrotation Yrotation Xrotation
		JOINT LeftHip
		{
			OFFSET 1.62329 -1.80800 0.67318
			CHANNELS 3 Zrotation Yrotation Xrotation
			JOINT LeftKnee
			{
				OFFSET 2.57139 -7.06484 0.00000
				CHANNELS 3 Zrotation Yrotation Xrotation
				JOINT LeftAnkle
				{
					OFFSET 2.52017 -6.92413 0.00000
					CHANNELS 3 Zrotation Yrotation Xrotation
					JOINT LeftToe
					{
						OFFSET 0.23295 -0.64001 2.10214
						CHANNELS 3 Zrotation Yrotation Xrotation
						End Site
						{
							OFFSET 0.00000 -0.00000 1.10139
						}
					}
				}
			}
		}
	}
	JOINT RHipJoint
	{
		OFFSET 0 0 0
		CHANNELS 3 Zrotation Yrotation Xrotation
		JOINT RightHip
		{
			OFFSET -1.48061 -1.80800 0.67318
			CHANNELS 3 Zrotation Yrotation Xrotation
			JOINT RightKnee
			{
				OFFSET -2.63258 -7.23296 0.00000
				CHANNELS 3 Zrotation Yrotation Xrotation
				JOINT RightAnkle
				{
					OFFSET -2.54779 -7.00000 0.00000
					CHANNELS 3 Zrotation Yrotation Xrotation
					JOINT RightToe
					{
						OFFSET -0.23067 -0.63376 2.12161
						CHANNELS 3 Zrotation Yrotation Xrotation
						End Site
						{
							OFFSET -0.00000 -0.00000 1.11000
						}
					}
				}
			}
		}
	}
	JOINT lowerback
	{
		OFFSET 0 0 0
		CHANNELS 3 Zrotation Yrotation Xrotation
		JOINT Chest
		{
			OFFSET -0.02108 2.07573 -0.16981
			CHANNELS 3 Zrotation Yrotation Xrotation
			JOINT Chest2
			{
				OFFSET 0.05070 2.08439 -0.03141
				CHANNELS 3 Zrotation Yrotation Xrotation
				JOINT lowerneck
				{
					OFFSET 0 0 0
					CHANNELS 3 Zrotation Yrotation Xrotation
					JOINT Neck
					{
						OFFSET -0.10731 1.60408 0.31370
						CHANNELS 3 Zrotation Yrotation Xrotation
						JOINT Head
						{
							OFFSET 0.08411 1.65679 -0.30822
							CHANNELS 3 Zrotation Yrotation Xrotation
							End Site
							{
								OFFSET 0.03911 1.69149 -0.14146
							}
						}
					}
				}
				JOINT LeftCollar
				{
					OFFSET 0 0 0
					CHANNELS 3 Zrotation Yrotation Xrotation
					JOINT LeftShoulder
					{
						OFFSET 3.52315 0.73219 -0.54694
CHANNELS 3 Zrotation Xrotation Yrotation
						JOINT LeftElbow
						{
OFFSET 0 -5.324620 -0.000000
CHANNELS 3 Zrotation Xrotation Yrotation
							JOINT LeftWrist
							{
OFFSET 0 -3.484020 -0.000000
CHANNELS 3 Zrotation Xrotation Yrotation
								JOINT lhand
								{
									OFFSET 0 0 0
CHANNELS 3 Zrotation Xrotation Yrotation
									JOINT LFingers
									{
OFFSET 0 -0.572480 -0.000000
CHANNELS 3 Zrotation Xrotation Yrotation
										End Site
										{
OFFSET 0 -0.461540 -0.000000
										}
									}
								}
								JOINT LThumb
								{
OFFSET 0 0.000000 0.000000
CHANNELS 3 Zrotation Xrotation Yrotation
									End Site
									{
OFFSET 0 -0.468590 0.468590
									}
								}
							}
						}
					}
				}
				JOINT RightCollar
				{
					OFFSET 0 0 0
					CHANNELS 3 Zrotation Yrotation Xrotation
					JOINT RightShoulder
					{
						OFFSET -3.41766 0.93592 -0.10019
CHANNELS 3 Zrotation Xrotation Yrotation
						JOINT RightElbow
						{
OFFSET 0 -5.335890 -0.000000
CHANNELS 3 Zrotation Xrotation Yrotation
							JOINT RightWrist
							{
OFFSET 0 -3.641340 -0.000000
CHANNELS 3 Zrotation Xrotation Yrotation
								JOINT rhand
								{
									OFFSET 0 0 0
CHANNELS 3 Zrotation Xrotation Yrotation
									JOINT RFingers
									{
OFFSET 0 -0.734810 -0.000000
CHANNELS 3 Zrotation Xrotation Yrotation
										End Site
										{
OFFSET 0 -0.592420 -0.000000
										}
									}
								}
								JOINT RThumb
								{
OFFSET 0 0.000000 0.000000
CHANNELS 3 Zrotation Xrotation Yrotation
									End Site
									{
OFFSET 0 -0.601470 0.601470
									}
								}
							}
						}
					}
				}
			}
		}
	}
}
MOTION
Frames: 10
Frame Time: 0.008333333333333333
9.948000 17.830200 0.305200 14.474800 -85.067800 -7.420400 0.000000 0.000000 0.000000 -15.842700 -4.753900 -14.616000 1.808500 8.455300 24.105600 -0.433700 15.086300 -15.890500 0.645800 -5.140800 -14.310700 0.000000 0.000000 0.000000 21.374300 9.847300 -13.041400 -2.666900 -10.135300 29.415900 -1.235600 3.201200 -20.197500 -0.188400 -2.795400 7.709700 0.778000 -0.410700 1.902300 2.867200 -0.535300 0.155400 2.519200 -0.279400 -0.886800 -6.834800 4.431600 -22.346300 2.325800 7.889100 23.812600 3.187000 3.186200 11.032300 -0.000000 0.000000 0.000000 -0.210700 -3.359300 -35.624000 15.007800 -24.157000 3.229100 12.299300 14.013200 -22.520600 0.000000 0.000000 0.000000 -7.125000 0.000000 0.000000 -16.995400 52.174200 3.074500 -0.000000 0.000000 0.000000 -5.754500 10.652900 6.494200 -16.593900 -26.319300 -3.905600 -20.589900 16.382000 -2.289300 0.000000 0.000000 0.000000 7.125000 0.000000 -0.000000 4.611400 27.525900 1.964100
9.933737 17.830558 0.271354 16.787566 -85.021577 -9.822102 0.000000 0.000000 0.000000 -15.935761 -4.741024 -14.519043 1.824346 8.490049 24.212843 -0.443880 15.060561 -15.670707 0.716977 -5.411035 -15.084693 0.000000 0.000000 0.000000 21.329563 9.541247 -13.035139 -2.678717 -10.155791 29.482806 -1.236588 3.257309 -20.196570 -0.214868 -2.979436 8.221980 1.218266 -0.256334 2.150141 2.790754 -0.313100 0.137051 2.188910 -0.170037 -1.055744 -7.172233 3.847875 -22.553085 2.059082 7.303036 25.493342 3.126353 2.755595 11.749034 0.000000 0.000000 0.000000 -0.801235 -2.740153 -35.805401 14.498079 -23.442220 3.023440 15.590040 16.375537 -24.729984 0.000000 0.000000 0.000000 -7.125000 0.000000 0.000000 -14.820812 54.922377 3.658345 0.000000 0.000000 0.000000 -5.775787 10.821267 7.538471 -16.568217 -26.285080 -3.894200 -19.467082 16.403713 -2.821141 0.000000 0.000000 0.000000 7.125000 0.000000 0.000000 5.452448 26.978101 2.395805
9.905260 17.827721 0.237425 19.243895 -85.177682 -12.310412 0.000000 0.000000 0.000000 -15.952199 -4.055415 -14.835467 1.882475 8.616849 24.603797 -0.375677 14.429011 -15.532314 0.664201 -5.209351 -14.507286 0.000000 0.000000 0.000000 21.295556 9.725454 -12.731819 -2.646815 -10.100104 29.301565 -1.233131 3.059351 -20.202859 -0.123092 -2.261431 6.228589 1.513144 -0.165260 1.987656 2.709914 -0.188858 0.093261 1.935762 -0.109147 -1.014372 -7.407995 3.305976 -22.042117 2.248009 6.511992 27.485559 3.165219 2.288343 12.461608 0.000000 0.000000 0.000000 -1.277616 -2.217894 -34.795232 13.876498 -22.557823 2.780559 12.684925 15.282949 -23.244395 0.000000 0.000000 0.000000 -7.125000 0.000000 0.000000 -16.969253 52.938418 3.392384 0.000000 0.000000 0.000000 -5.886690 10.643159 8.862141 -16.455355 -26.134201 -3.844325 -19.177211 17.095988 -3.385208 0.000000 0.000000 0.000000 7.125000 0.000000 0.000000 5.652146 26.388545 2.562969
9.896313 17.825821 0.187538 21.438919 -84.714841 -14.586022 0.000000 0.000000 0.000000 -16.093268 -3.563654 -15.150464 1.908821 8.673506 24.779228 -0.370691 13.829188 -14.417644 0.910880 -6.081499 -17.021042 0.000000 0.000000 0.000000 21.159884 9.692468 -12.696358 -2.690586 -10.176459 29.549983 -1.278776 3.067412 -20.585609 -0.178754 -2.719662 7.499468 0.997943 -0.378877 2.134264 2.949479 -0.475177 -0.085756 2.482665 -0.249094 -1.267694 -8.434629 2.401781 -21.348151 2.900842 5.260853 29.912908 3.448513 1.563845 13.338686 0.000000 0.000000 0.000000 -2.230053 -1.448106 -33.485895 13.561381 -22.104075 2.660877 12.008483 14.981591 -23.276053 0.000000 0.000000 0.000000 -7.125000 0.000000 0.000000 -17.643330 52.850278 3.493337 0.000000 0.000000 0.000000 -6.644173 10.207112 10.206468 -16.629039 -26.366131 -3.921210 -18.117069 17.585062 -3.365696 0.000000 0.000000 0.000000 7.125000 0.000000 0.000000 6.457610 26.428491 2.926069
9.879231 17.822943 0.150222 22.517829 -84.165906 -15.674563 0.000000 0.000000 0.000000 -16.197486 -3.585346 -15.338289 1.945517 8.751622 25.021367 -0.284906 13.084136 -14.487841 0.710063 -5.385370 -15.010969 0.000000 0.000000 0.000000 20.990097 9.486248 -12.716186 -2.709964 -10.210147 29.659860 -1.310315 3.049622 -20.851282 -0.187770 -2.790124 7.695035 0.754592 -0.641134 2.013322 3.014210 -0.829528 -0.206679 2.697005 -0.423707 -1.306760 -9.288107 1.365391 -20.335228 3.258243 3.709859 32.263225 3.529559 0.674401 14.229445 0.000000 0.000000 0.000000 -2.665079 -0.660304 -33.280000 13.566942 -22.112245 2.662916 13.719211 15.771610 -24.577122 0.000000 0.000000 0.000000 -7.125000 0.000000 0.000000 -16.623250 54.413091 3.924465 0.000000 0.000000 0.000000 -7.057146 9.313385 11.161904 -16.832685 -26.636725 -4.012057 -18.696627 17.743781 -3.288996 0.000000 0.000000 0.000000 7.125000 0.000000 0.000000 6.020971 26.498563 2.716074
9.869045 17.819710 0.103183 15.897048 -83.686142 -9.107674 0.000000 0.000000 0.000000 -15.395306 -3.828973 -15.921518 2.077889 9.026419 25.877997 -0.257019 12.689338 -14.240683 0.799446 -5.706607 -15.935500 0.000000 0.000000 0.000000 21.786740 9.386366 -12.509151 -2.661667 -10.126091 29.386170 -1.332702 2.859202 -21.072322 -0.268435 -3.332683 9.206270 1.248381 -0.981496 1.848212 3.222164 -1.283201 -0.132706 2.643052 -0.656659 -1.125576 -10.268763 0.310285 -19.642165 3.952695 2.001224 34.550926 3.753374 -0.251530 15.251308 0.000000 0.000000 0.000000 -2.786899 -0.234956 -32.480103 13.944798 -22.655583 2.806874 16.719958 16.950648 -24.609954 0.000000 0.000000 0.000000 -7.125000 0.000000 0.000000 -13.620589 55.020051 3.396314 0.000000 0.000000 0.000000 -7.356995 8.132782 12.453383 -17.543840 -27.569067 -4.336091 -18.725838 16.518362 -3.330188 0.000000 0.000000 0.000000 7.125000 0.000000 0.000000 5.997065 26.454722 2.711395
9.841380 17.820748 0.054790 12.921633 -83.032086 -6.022098 0.000000 0.000000 0.000000 -15.007720 -3.735376 -16.742245 2.224270 9.318315 26.796343 -0.214358 12.042761 -13.823590 0.920166 -6.111467 -17.108312 0.000000 0.000000 0.000000 22.224095 9.030691 -12.501661 -2.622598 -10.057495 29.163167 -1.358311 2.657051 -21.322984 -0.300836 -3.526658 9.748784 1.345972 -1.177979 1.266108 3.399774 -1.575593 0.123787 2.760125 -0.806995 -0.522863 -10.647859 -0.437563 -18.628950 3.610267 0.836624 35.965340 3.486332 -0.961644 15.831923 0.000000 0.000000 0.000000 -2.757525 -0.013415 -32.484813 14.817468 -23.891080 3.151757 18.232621 16.483044 -25.342332 0.000000 0.000000 0.000000 -7.125000 0.000000 0.000000 -12.431735 56.048281 3.406405 0.000000 0.000000 0.000000 -7.675595 7.039429 13.420201 -18.835734 -29.213479 -4.950658 -19.191935 15.358411 -3.288307 0.000000 0.000000 0.000000 7.125000 0.000000 0.000000 5.644107 26.490779 2.547155
9.827372 17.814856 -0.000795 13.663389 -82.644345 -6.909884 0.000000 0.000000 0.000000 -15.040577 -3.443182 -17.288142 2.370741 9.598898 27.687407 -0.185776 11.623633 -13.597609 0.938632 -6.170789 -17.280903 0.000000 0.000000 0.000000 22.282761 8.743469 -12.352423 -2.625697 -10.062866 29.180617 -1.375295 2.655424 -21.460788 -0.297427 -3.504032 9.685647 0.757110 -1.471419 1.320342 3.622435 -1.987775 0.434876 3.323237 -1.017446 -0.190789 -10.557919 -0.800755 -17.946785 2.407888 0.454028 37.208924 2.886143 -1.390029 16.364775 0.000000 0.000000 0.000000 -2.902224 -0.081227 -31.060983 15.624091 -25.008132 3.485618 17.281069 15.785533 -25.536071 0.000000 0.000000 0.000000 -7.125000 0.000000 0.000000 -13.515906 56.046416 3.710999 0.000000 0.000000 0.000000 -8.490201 5.925063 15.918879 -20.380788 -31.097707 -5.727050 -20.410416 14.110550 -2.420273 0.000000 0.000000 0.000000 7.125000 0.000000 0.000000 4.744945 27.388907 2.036783
9.819590 17.815481 -0.042184 13.914809 -82.338247 -7.584339 0.000000 0.000000 0.000000 -15.087997 -3.195302 -17.697124 2.560174 9.946395 28.803458 -0.215674 11.668104 -13.112388 0.954244 -6.219348 -17.422714 0.000000 0.000000 0.000000 22.433724 8.495448 -11.999931 -2.655675 -10.115573 29.351874 -1.416110 2.672809 -21.785420 -0.415948 -4.139428 11.469246 0.641077 -1.423582 1.707762 3.775668 -1.938651 0.919501 3.549603 -1.001277 0.096216 -12.266088 -1.577100 -17.703014 3.106278 -0.534681 38.196599 3.328698 -2.023131 16.948946 0.000000 0.000000 0.000000 -2.567889 -0.311517 -31.440813 16.361737 -26.008534 3.803237 16.690067 13.832322 -24.076252 0.000000 0.000000 0.000000 -7.125000 0.000000 0.000000 -13.394182 54.485996 3.164337 0.000000 0.000000 0.000000 -8.882162 4.530490 16.494216 -21.776160 -32.722737 -6.464656 -21.135702 13.695448 -2.824851 0.000000 0.000000 0.000000 7.125000 0.000000 0.000000 4.177569 26.945976 1.835561
9.817931 17.805451 -0.080780 13.690185 -81.926598 -7.405125 0.000000 0.000000 0.000000 -15.012479 -3.276949 -18.939533 2.898457 10.528725 30.706486 -0.222990 11.469998 -12.592936 0.965122 -6.254896 -17.525846 0.000000 0.000000 0.000000 22.569655 8.397016 -11.868726 -2.619392 -10.051889 29.144782 -1.421864 2.090934 -21.962152 -0.267826 -3.329015 9.196129 0.832557 -1.548719 1.893404 3.647505 -2.108256 1.207800 3.312083 -1.087746 0.285930 -12.455969 -1.708501 -17.115512 2.932984 -0.780190 38.640269 3.238940 -2.220153 17.076543 0.000000 0.000000 0.000000 -1.799201 -0.467989 -31.648926 16.977801 -26.828542 4.077291 16.788973 13.621714 -23.893983 0.000000 0.000000 0.000000 -7.125000 0.000000 0.000000 -13.208625 54.324213 3.067092 0.000000 0.000000 0.000000 -9.130807 3.078877 18.246902 -22.932212 -34.014511 -7.100363 -21.279650 13.790216 -2.568771 0.000000 0.000000 0.000000 7.125000 0.000000 0.000000 4.073843 27.217304 1.763697
